<?xml version="1.0" standalone="no"?>
<!DOCTYPE svg PUBLIC "-//W3C//DTD SVG 20010904//EN"
 "http://www.w3.org/TR/2001/REC-SVG-20010904/DTD/svg10.dtd">
<svg version="1.0" xmlns="http://www.w3.org/2000/svg"
 width="700.000000pt" height="700.000000pt" viewBox="0 0 700.000000 700.000000"
 preserveAspectRatio="xMidYMid meet">
<metadata>
Created by potrace 1.14, written by Peter Selinger 2001-2017
</metadata>
<g transform="translate(0.000000,700.000000) scale(0.100000,-0.100000)"
fill="#000000" stroke="none">
<path d="M3298 6995 c-1 -1 -46 -5 -99 -9 -53 -4 -104 -8 -115 -10 -10 -2 -41
-7 -69 -10 -27 -4 -72 -11 -100 -16 -27 -5 -61 -12 -75 -14 -387 -71 -799
-228 -1145 -438 -215 -130 -315 -203 -510 -374 -452 -394 -806 -928 -1000
-1509 -44 -131 -91 -300 -101 -365 -3 -19 -7 -37 -9 -40 -4 -7 -33 -171 -41
-232 -3 -24 -7 -54 -10 -68 -26 -159 -25 -683 1 -820 2 -12 7 -49 10 -83 13
-131 76 -408 106 -467 21 -43 52 -72 104 -98 75 -38 195 -14 251 50 68 77 74
132 35 299 -41 169 -63 314 -77 483 -6 80 -6 388 1 451 17 178 35 301 60 415
4 14 8 36 11 50 20 99 91 324 144 455 39 99 154 333 186 381 13 19 24 38 24
41 0 12 150 232 211 309 382 484 859 821 1444 1021 103 35 304 87 378 98 23 4
44 8 47 10 3 2 29 6 59 10 30 4 63 9 75 11 11 2 50 7 86 10 36 4 81 8 100 10
51 5 386 4 445 -1 109 -9 177 -17 198 -21 12 -2 40 -6 62 -9 45 -6 79 -12 103
-19 9 -3 33 -7 52 -10 53 -8 279 -71 374 -105 278 -98 489 -208 766 -398 163
-112 420 -351 558 -518 97 -118 88 -107 159 -206 251 -353 439 -805 508 -1219
24 -143 24 -141 29 -195 3 -27 8 -84 12 -125 8 -88 8 -358 -1 -451 -33 -380
-116 -701 -267 -1039 -207 -460 -576 -911 -983 -1202 -105 -75 -155 -108 -162
-108 -3 0 -14 -6 -22 -14 -72 -64 -542 -280 -701 -322 -8 -2 -64 -18 -125 -34
-60 -17 -126 -33 -145 -36 -19 -3 -51 -9 -70 -14 -19 -5 -58 -12 -86 -15 -28
-3 -59 -7 -70 -9 -10 -2 -48 -7 -84 -11 -36 -3 -83 -8 -105 -10 -61 -7 -371
-7 -450 0 -112 9 -251 28 -340 45 -27 6 -61 13 -75 15 -14 3 -37 7 -52 10 -93
17 -375 110 -513 168 -157 66 -420 213 -545 304 -107 77 -135 98 -140 103 -3
3 -32 27 -65 55 -33 27 -80 68 -105 91 -25 24 -66 62 -92 86 -55 51 -116 75
-179 72 -110 -5 -193 -88 -205 -202 -12 -109 18 -149 277 -377 51 -44 321
-247 339 -253 8 -3 17 -8 20 -11 3 -3 14 -11 25 -18 11 -7 51 -31 88 -53 288
-175 672 -326 1027 -404 146 -33 190 -41 285 -52 22 -2 49 -6 60 -9 121 -27
662 -26 845 1 363 54 611 119 897 235 686 279 1275 781 1661 1414 68 111 169
305 211 405 18 41 36 83 41 92 24 44 112 309 146 443 31 120 28 107 58 275 43
236 51 330 51 605 0 353 -24 545 -105 876 -28 114 -115 385 -130 404 -4 6 -11
21 -15 35 -35 123 -235 498 -364 680 -263 374 -545 652 -938 923 -45 32 -84
57 -86 57 -2 0 -42 23 -88 51 -93 56 -259 141 -359 184 -36 15 -83 36 -106 45
-70 31 -314 110 -434 140 -181 46 -247 57 -540 96 -47 6 -526 15 -532 9z"/>
<path d="M3378 5835 c-2 -1 -41 -5 -88 -9 -47 -3 -92 -8 -100 -9 -8 -2 -37 -7
-65 -11 -27 -4 -59 -9 -70 -11 -11 -2 -49 -11 -85 -20 -36 -9 -75 -19 -86 -21
-65 -12 -278 -94 -404 -156 -360 -176 -679 -447 -891 -758 -24 -36 -47 -67
-50 -70 -3 -3 -27 -41 -52 -85 -248 -433 -355 -902 -314 -1385 54 -628 362
-1209 855 -1613 348 -284 825 -479 1263 -514 157 -13 419 -7 519 11 14 3 46 7
72 11 26 3 53 8 60 10 7 2 24 6 38 9 83 14 245 62 366 109 604 233 1096 726
1333 1335 47 121 109 336 116 402 2 16 15 91 21 125 18 89 24 396 11 535 -8
80 -11 105 -33 230 -12 62 -56 226 -83 305 -84 241 -189 438 -350 655 -168
227 -447 475 -687 611 -228 129 -522 239 -734 274 -19 3 -42 8 -50 10 -8 2
-37 7 -65 10 -27 3 -70 8 -95 11 -42 6 -347 13 -352 9z"/>
</g>
</svg>
